inDegrees=no
num_controls=7
num_derivatives=13
num_iterations=80
num_multipliers=7
num_parameters=0
num_slacks=7
num_states=26
objective=0.425554
objective_accelerations=0.060141
objective_balance=0.001423
objective_effort=0.014847
objective_height=0.343250
objective_ligament=0.005892
solver_duration=1162.580356
status=Solve_Succeeded
success=true
DataType=double
version=3
OpenSimVersion=4.5
endheader
time	/jointset/ground_pelvis/pelvis_tilt/value	/jointset/ground_pelvis/pelvis_tx/value	/jointset/ground_pelvis/pelvis_ty/value	/jointset/hip_l/hip_flexion_l/value	/jointset/hip_l/hip_adduction_l/value	/jointset/hip_l/hip_rotation_l/value	/jointset/back/lumbar_extension/value	/jointset/patellofemoral_l/patellar_flexion_l/value	/jointset/knee_l/knee_flexion_l/value	/jointset/knee_l/knee_adduction_l/value	/jointset/knee_l/knee_rotation_l/value	/jointset/ankle_l/ankle_angle_l/value	/jointset/subtalar_l/subtalar_angle_l/value	/jointset/ground_pelvis/pelvis_tilt/speed	/jointset/ground_pelvis/pelvis_tx/speed	/jointset/ground_pelvis/pelvis_ty/speed	/jointset/hip_l/hip_flexion_l/speed	/jointset/hip_l/hip_adduction_l/speed	/jointset/hip_l/hip_rotation_l/speed	/jointset/back/lumbar_extension/speed	/jointset/patellofemoral_l/patellar_flexion_l/speed	/jointset/knee_l/knee_flexion_l/speed	/jointset/knee_l/knee_adduction_l/speed	/jointset/knee_l/knee_rotation_l/speed	/jointset/ankle_l/ankle_angle_l/speed	/jointset/subtalar_l/subtalar_angle_l/speed	/forceset/tau_hip_flexion_l	/forceset/tau_hip_adduction_l	/forceset/tau_hip_rotation_l	/forceset/tau_knee_flexion_l	/forceset/tau_ankle_angle_l	/forceset/tau_subtalar_angle_l	/forceset/tau_lumbar_extension	lambda_cid13_p0	lambda_cid13_p1	lambda_cid13_p2	lambda_cid13_p3	lambda_cid13_p4	lambda_cid13_p5	lambda_cid14_p0	/jointset/ground_pelvis/pelvis_tilt/accel	/jointset/ground_pelvis/pelvis_tx/accel	/jointset/ground_pelvis/pelvis_ty/accel	/jointset/hip_l/hip_flexion_l/accel	/jointset/hip_l/hip_adduction_l/accel	/jointset/hip_l/hip_rotation_l/accel	/jointset/back/lumbar_extension/accel	/jointset/patellofemoral_l/patellar_flexion_l/accel	/jointset/knee_l/knee_flexion_l/accel	/jointset/knee_l/knee_adduction_l/accel	/jointset/knee_l/knee_rotation_l/accel	/jointset/ankle_l/ankle_angle_l/accel	/jointset/subtalar_l/subtalar_angle_l/accel	gamma_cid13_p0	gamma_cid13_p1	gamma_cid13_p2	gamma_cid13_p3	gamma_cid13_p4	gamma_cid13_p5	gamma_cid14_p0
1.5	-0.3412316274886274	0.04274238209714813	0.7859456114331289	1.032614979553574	-0.3520374833600148	-0.05380979249239339	-0.330109948814495	0.8411372247462167	0.8411372247462194	-0.01499162556005709	-0.1716504045654712	0.2717989450120464	0.1617496948318889	0.4889726845910066	0.2724503974557283	0.5247773066179774	-2.374334846177583	0.003903605625433734	-0.5885525763980946	0.6131685960826321	-2.267022340633108	-2.267022340633097	-0.3226572622929254	0.0403244427815978	-0.5551790685015727	-0.2175336149462234	-0.124372355794387	0.03485302273127249	-0.003491033252969334	-0.1508650976199966	-0.005507298222393393	0.01448797855119336	0.1215904418500596	-24.76542179554274	-2.233247447519232	0.3918472264477029	-9.534731032387151	-428.1640104332072	-58.55861416697517	-9.162326387078803	0.5353417435751298	0.7407045245101331	-0.7944334397698605	-1.368429793128224	0.2976020161218341	-0.5438583212891266	1.616592597161084	-1.184258797227103	-1.184258797227221	-0.1020156973003623	0.3032555932068705	-0.4075768167788605	0.4584160667100164	7.012577788345034e-07	-6.105697685644475e-07	-8.168981261325457e-06	-4.783007763248957e-07	1.528322441388948e-06	1.481726037639118e-06	9.068943855638188e-07
1.51	-0.33631541178872	0.04550315010975688	0.7911525785192097	1.008805549521914	-0.3519858323750311	-0.05971309139404955	-0.3238994997729381	0.8184097760015018	0.81840977600145	-0.0182337419430067	-0.1712286044929769	0.2662259486124962	0.159593704656374	0.4941759833647202	0.2796195397277319	0.5164968388048519	-2.387170077801083	0.006438089048397194	-0.5920045139900064	0.6287834014322519	-2.278178694089374	-2.278178694089375	-0.3257549467535452	0.04410275355578076	-0.5593987293831914	-0.2136512533668984	-0.1203441200365349	0.03356539511426408	-0.002782952532080118	-0.1461791528251562	-0.008026279150178813	0.01421566222113519	0.1179859957808152	-25.40757060786828	-2.311640072216908	0.7574034308246915	-8.421306921422739	-424.6435364372767	-58.67948259283743	-10.10613019979812	0.4987115548533536	0.6923498535111333	-0.8624384806706593	-1.183814669956037	0.234454144670294	-0.2296210978129518	1.513252884475427	-1.038168890496129	-1.038168890497902	-0.4124771380835052	0.4237024423185288	-0.425978442733571	0.3563216100307606	6.877835223002657e-07	-1.296383836042658e-06	-8.000388911400412e-06	-5.567220983925431e-07	1.528572996396851e-06	1.347973034521564e-06	8.112760137876174e-07
1.52	-0.3313499855789547	0.04833307570007891	0.796273223921442	0.9848792182094211	-0.3519082200279604	-0.06564766159555929	-0.3175370370017621	0.7955793946680998	0.7955793946679707	-0.02150660163413247	-0.1707673045881621	0.2606113920603539	0.1574771731779498	0.4988147865617757	0.286281912998382	0.5075129698482587	-2.397715102344391	0.009095878042828435	-0.594806836368745	0.6435713420063858	-2.28760885837243	-2.287608858372443	-0.3288059239197933	0.04822440924174094	-0.563491099020019	-0.2096418755280928	-0.1163158842786983	0.03227776749725486	-0.002074871811422194	-0.1414932080303172	-0.01054526007796137	0.01394334589108055	0.1143815497115561	-26.04605095081829	-2.3879670150329	1.119542702432467	-7.374750617433621	-421.0628957097339	-58.90674210207943	-11.04738586350363	0.4224426282435847	0.6393507242393695	-0.9351136684634203	-0.9103883770899899	0.3222631304154127	-0.4139352786544482	1.451219642063967	-0.8390209625849557	-0.83902096258496	-0.09267423842598452	0.3719245755623223	-0.3821185678206659	0.483819318606145	6.729744528069025e-07	-8.372022600979833e-07	-7.780585648957903e-06	-4.828121464838486e-07	1.560417121110108e-06	1.715502495422767e-06	8.145135863666279e-07
1.53	-0.3263405852870545	0.0512279741451824	0.8013006754998595	0.9608572491635893	-0.351804340712477	-0.07161092630632374	-0.3110306845205266	0.7726637271880936	0.7726637271880389	-0.0248084651304123	-0.1702667563726142	0.2549580484380197	0.1554008893205873	0.5029631713532354	0.2926979533829614	0.4978667353285721	-2.406371380069173	0.01167367979540786	-0.5977894371849937	0.6576324169733154	-2.295152126401735	-2.29515212640174	-0.3315310968002462	0.05189881563651693	-0.5669853840066259	-0.2055565055067637	-0.1110193142027731	0.03108109386400932	-0.001191006026810574	-0.1404540439462023	-0.00682818657508331	0.01211536144551087	0.1102162211897436	-24.80929113414951	-1.799646103829738	1.013210097927941	-8.278469904266286	-417.9293305127617	-58.12816904385196	-11.98427655107231	0.3957860616207937	0.6427331326975899	-0.9956377501015337	-0.7970519411180296	0.2255464479690165	-0.2308668527031778	1.373540833976646	-0.6562991890423021	-0.6562991890410781	-0.3570950211847043	0.3659072076648668	-0.3041601710917394	0.3802556150962088	6.567471445444683e-07	8.385371869834945e-07	-7.506370791965588e-06	-2.470502159752922e-07	1.625829413635301e-06	2.615644574343894e-06	9.227855998230497e-07
1.54	-0.3212927512158307	0.0541870334815579	0.8062284128518042	0.9367579564463259	-0.351674681829409	-0.07760210589917085	-0.3043857234076265	0.7496837631346149	0.7496837631346128	-0.02813651159720182	-0.1697293223858529	0.2492755466244174	0.1533673311176781	0.5065015424256284	0.29911409125278	0.487570124553681	-2.41317983663179	0.01425179155958062	-0.6003898127849641	0.6712930683390055	-2.300468173068599	-2.300468173068595	-0.3340425180138898	0.05560156348047456	-0.5693227372736759	-0.2010967446374386	-0.1057227441268252	0.02988442023076003	-0.0003071402423971748	-0.1394148798620867	-0.003111113072206991	0.01028737699993816	0.1060508926679552	-23.56266309446473	-1.218011828109351	0.9136119038778947	-9.240940013696948	-414.6734665748839	-57.47344259487384	-12.91589049041588	0.3004398844303033	0.6393702212871669	-1.065188919504304	-0.5408241446573928	0.3223251327341036	-0.337490235398784	1.371134921816084	-0.3935766900966389	-0.3935766900966147	-0.04992390506409594	0.3775928653986556	-0.150732223909347	0.5586974882053479	6.326837647273756e-07	1.387084546161657e-06	-7.1960393408548e-06	-1.542246031191694e-07	1.63885831813392e-06	2.973780726470049e-06	9.257178533978688e-07
1.55	-0.3162128260163363	0.05720911941970187	0.8110500229982315	0.9126011776583869	-0.3515186291409517	-0.08361556072432748	-0.2976069054489128	0.7266610523611656	0.7266610523611832	-0.0314886469653072	-0.1691523117884228	0.243573677363415	0.1513802843326473	0.509393299652356	0.3051918207693441	0.4766555851473417	-2.417781741516799	0.01694748121028579	-0.6021305494751334	0.6842834257828359	-2.303780705640639	-2.303780705640527	-0.3364381562107091	0.05988882726334102	-0.5710472351102375	-0.1963410994729317	-0.1020347386856417	0.02837945081054628	0.0006686174712732543	-0.1347035732783351	-0.006605569667322357	0.009635297670035858	0.1026264622613725	-24.59668818356897	-1.055144107210551	1.2318930251939	-7.730002155567991	-411.7349494066328	-57.53377946629916	-13.84200273578863	0.2700668953241248	0.5752297737556348	-1.118721340800723	-0.3606623800616277	0.2425083164178983	-0.06592600778140092	1.234921512624167	-0.256248440483288	-0.2562484404670423	-0.3426821275118754	0.4663249871817525	-0.1827068123525571	0.4304803875130899	5.995918676842636e-07	6.369105866686788e-07	-6.84409529217273e-06	-2.260864866886675e-07	1.59153244947149e-06	2.70743178902812e-06	8.072803836308481e-07
1.56	-0.3111066785938648	0.06028863374439453	0.8157596607726749	0.888410222077673	-0.3513357560689513	-0.08964113504077656	-0.2907037968443683	0.7036139848820819	0.7036139848820508	-0.03486639838560637	-0.1685300221826099	0.2378546834742825	0.1494400904706495	0.5117459870202734	0.310599768562515	0.4651756501569262	-2.420015195187371	0.0196158682681566	-0.6028137110435124	0.6961511975049652	-2.305339514201704	-2.305339514201484	-0.3391657284283681	0.06465736514424597	-0.5727476628997207	-0.1917261600308358	-0.09834673324445187	0.02687448139033885	0.001644375184409313	-0.1299922666945778	-0.01010002626243254	0.008983218340150916	0.09920203185479533	-25.62519575345651	-0.8905844227319424	1.546873229860097	-6.288792568501223	-408.7234178258017	-57.69169668149664	-14.76336200991632	0.1926259126683242	0.5054138766084851	-1.178268036319553	-0.06713390176971776	0.3168646141672748	-0.125975211040709	1.146617777475954	-0.04283188790170258	-0.04283188790170263	-0.1163107092320427	0.4738476850063528	-0.1459182144937576	0.530556343723141	4.242281687528436e-07	1.68962544236076e-06	-5.033285672322028e-06	-2.108232016720645e-09	1.247444866427443e-06	2.573736369111073e-06	6.953779341761921e-07
1.57	-0.3059797098234803	0.06341945624747396	0.8203517272490536	0.8642087297909101	-0.3511251893027512	-0.09567977445559787	-0.2836865629341092	0.680561432786794	0.680561432786765	-0.03826377162640939	-0.1678655499321098	0.2321207461537808	0.1475477730118293	0.5135738867858072	0.3155110567966072	0.4531538090050736	-2.41995424229258	0.02246359673703367	-0.604657477405171	0.7071964774413283	-2.304800970677436	-2.30480097067716	-0.3404416889806212	0.06834833410793284	-0.5739106549381049	-0.1867490573421949	-0.09436019999748305	0.02610949727780361	0.002655640973149434	-0.1270982222349913	-0.01012756877319999	0.00687305908823173	0.09582886082911847	-25.6650835467723	-0.06580266788106141	1.5280556067055	-5.982325247831626	-406.2029149706651	-56.68270753569459	-15.6777811710715	0.1667947772606869	0.4761217166519192	-1.226693428553256	0.09205972056039548	0.2627780032989747	-0.1746431290591277	1.068617035997669	0.1575812161224996	0.1575812161307788	-0.1520406505192394	0.3335901086495148	-0.08187025209206919	0.4783614521163014	7.102471746104027e-08	4.995951317034143e-06	-1.398894088510557e-06	5.916701954570287e-07	5.324051404063787e-07	2.60585784610013e-06	5.91644260111992e-07
1.58	-0.3008366775016826	0.06659781871686297	0.8248210650591266	0.8400177170001875	-0.3508873350438503	-0.1017290646901101	-0.2765618494376298	0.6575253428754205	0.6575253428754675	-0.04167766485706528	-0.1671607942707184	0.2263791028021793	0.1457046414240318	0.5149586973019261	0.3201077618244307	0.4406299168958185	-2.417919295979505	0.02507336680796568	-0.6049438749800642	0.7176471147489314	-2.302047077411912	-2.302047077411581	-0.3424697264247747	0.07271404733560692	-0.5742888691197436	-0.1818889858262869	-0.09037366675055554	0.02534451316520797	0.003666906762384593	-0.1242041777754253	-0.01015511128398805	0.004762899836222572	0.09245568980341763	-25.70279063398282	0.7558498534324435	1.512876208413648	-5.690555074783604	-403.6864725525877	-55.70476676523245	-16.57394180477706	0.1040080627854171	0.4424972353546737	-1.278678227800068	0.3276647818871428	0.2692729345782423	0.1854985463123526	1.027689251724039	0.4002380603494564	0.4002380603494086	-0.2667260876120903	0.6087965378038097	0.01103735685526165	0.5071501091765253	-2.016611129579212e-07	6.989519497313642e-06	1.416788615357208e-06	9.690220043390081e-07	-4.511038383149315e-08	2.308185997081448e-06	4.611034970207085e-07
1.59	-0.2956827084854425	0.06981999449028271	0.829162739372811	0.815858661948992	-0.3506227453395798	-0.1077790665434264	-0.2693360263876416	0.6345281270709028	0.6345281270710151	-0.04510906516946794	-0.1664117364921098	0.2206373898118175	0.1439118073474049	0.5157357519230849	0.3242183304377528	0.4276368719317634	-2.413479226513754	0.02785488871321151	-0.6050080976858973	0.727325619109742	-2.297052099326099	-2.297052099326091	-0.3437500487074764	0.07706837453577878	-0.5739968089253021	-0.1766622604723306	-0.08660672100562831	0.02381166741318278	0.004478072845564317	-0.1203373284468934	-0.01262305311724197	0.003715178229621671	0.08905561567731671	-26.46888072730284	1.111437665396326	1.72298507657859	-4.559561232452102	-401.4140823945078	-55.67270925448414	-17.44525378337802	0.04962211714831714	0.3791978093008093	-1.319962503486652	0.56399798894989	0.2826561519616257	-0.0951325057696875	0.9091496075234913	0.6006863663596514	0.6006863663111401	-0.04825744755585273	0.3451627442651304	0.0470820629618028	0.531126232577515	-3.650730293351748e-07	7.201487949487254e-06	3.121366410730002e-06	1.052651973703602e-06	-4.359859199350422e-07	1.562937491338006e-06	2.941816845355279e-07
